# xmcd CD database file
#
# Track frame offsets:
#	150
#	15750
#	33005
#	53401
#	69557
#	91867
#	107939
#	128272
#	149322
#	167422
#	190898
#	207626
#	226335
#	249658
#	267499
#	286852
#
# Disc length: 4125 seconds
#
# Revision: 0
# Processed by: cddbd v1.5.2PL0 Copyright (c) Steve Scherf et al.
# Submitted via: jetAudio 7
#
DISCID=cf101b10
DTITLE=Inka Karal - Remembranzas
DYEAR=1900
DGENRE=Country
TTITLE0=Juramento
TTITLE1=Viento
TTITLE2=El Pituco
TTITLE3=Mi Pequena Quinceanera
TTITLE4=Che Guevara (mix)
TTITLE5=Puru Runas
TTITLE6=Qori Pankarita
TTITLE7=Olelei
TTITLE8=San Juanito Tradicional
TTITLE9=Si Tu Te Vas
TTITLE10=Siempre Te Amare
TTITLE11=El Chipivo Enamorado
TTITLE12=Casorio
TTITLE13=Te Marchaste Lejos
TTITLE14=Lunita De Amor
TTITLE15=Vete (Lejos De Aqui)
EXTD=
EXTT0=
EXTT1=
EXTT2=
EXTT3=
EXTT4=
EXTT5=
EXTT6=
EXTT7=
EXTT8=
EXTT9=
EXTT10=
EXTT11=
EXTT12=
EXTT13=
EXTT14=
EXTT15=
PLAYORDER=
